<?xml version="1.0" encoding="iso-8859-1"?>
<!-- Generator: Adobe Illustrator 19.0.0, SVG Export Plug-In . SVG Version: 6.00 Build 0)  -->
<svg xmlns="http://www.w3.org/2000/svg" xmlns:xlink="http://www.w3.org/1999/xlink" version="1.1" id="Capa_1" x="0px" y="0px" viewBox="0 0 512 512" style="enable-background:new 0 0 512 512;" xml:space="preserve" width="512px" height="512px">
<g>
	<g>
		<path d="M369.207,2.328c-28.024,0-50.822,22.799-50.822,50.822s22.799,50.823,50.822,50.823s50.822-22.799,50.822-50.822    S397.231,2.328,369.207,2.328z M369.207,88.971c-19.752,0-35.821-16.069-35.821-35.821s16.069-35.821,35.821-35.821    s35.821,16.069,35.821,35.821S388.96,88.971,369.207,88.971z" fill="#FFFFFF"/>
	</g>
</g>
<g>
	<g>
		<path d="M163.327,6.663c-3.789-1.673-8.219,0.036-9.894,3.825c-1.676,3.788,0.037,8.219,3.825,9.895    c12.973,5.737,21.355,18.601,21.355,32.77c0,19.752-16.07,35.821-35.822,35.821s-35.821-16.069-35.821-35.821    c0-14.17,8.383-27.033,21.355-32.77c3.788-1.676,5.501-6.104,3.825-9.894c-1.675-3.789-6.106-5.499-9.894-3.826    C103.858,14.801,91.97,33.048,91.97,53.151c-0.001,28.023,22.797,50.822,50.821,50.822s50.823-22.799,50.823-50.822    C193.614,33.048,181.725,14.801,163.327,6.663z" fill="#FFFFFF"/>
	</g>
</g>
<g>
	<g>
		<path d="M447.232,139.621c-11.911-11.16-27.44-17.01-43.086-17.01c-7.22,0-62.799,0-69.886,0    c-15.872,0-31.341,6.015-43.075,17.009c-8.708,8.159-21.189,21.406-32.712,39.273c-1.814-0.097-3.209-0.079-4.928,0.027    c-11.525-17.877-24.012-31.134-32.729-39.301c-11.914-11.161-27.445-17.009-43.086-17.009c-14.964,0-54.668,0-69.886,0    c-15.874,0-31.343,6.017-43.076,17.009C40.682,162.188,0.237,211.485,0,288.098c-0.05,16.095,12.73,29.543,28.488,29.979    c16.56,0.438,30.136-12.781,30.136-29.301c0-26.955,6.853-51.902,20.397-74.354L60.419,384.77c-0.372,3.4,0.725,6.811,3.008,9.357    c2.283,2.547,5.555,4.007,8.976,4.007h9.602v85.689c0,14.253,11.596,25.849,25.85,25.849h16.59c7.165,0,13.661-2.933,18.348-7.66    c4.687,4.728,11.183,7.66,18.349,7.66h16.59c14.253,0,25.849-11.596,25.849-25.849v-85.689h3.887v89.961    c0,0.055,0,0.108,0.002,0.163c0.149,11.832,9.822,21.412,21.689,21.412h12.831c5.42,0,10.384-1.999,14.191-5.299    c3.806,3.299,8.77,5.299,14.189,5.299h12.831c11.961,0,21.69-9.73,21.69-21.689v-150.15c1.258,2.161,2.433,4.356,3.531,6.578    v139.412c0,14.253,11.597,25.849,25.851,25.849h16.59c7.165,0,13.661-2.933,18.348-7.66c4.688,4.728,11.183,7.66,18.349,7.66    h16.59c14.253,0,25.849-11.596,25.849-25.849V308.972c0-4.143-3.357-7.5-7.5-7.5s-7.5,3.357-7.5,7.5v174.852    c0,5.98-4.866,10.848-10.849,10.848h-16.59c-5.978,0-10.844-4.863-10.848-10.841c0-0.006-0.001-0.013-0.001-0.019V331.127    c0-4.143-3.357-7.5-7.5-7.5s-7.5,3.357-7.5,7.5v16.062c-7.307-24.55-20.558-46.768-38.285-65.115v-94.558    c0-6.898-8.569-10.125-13.125-4.962c-5.767,6.536-10.991,13.484-15.63,20.791c-4.205-9.049-11.524-16.416-20.727-20.638    c9.861-14.422,20.136-25.241,27.502-32.142c10.321-9.67,21.995-12.955,35.242-12.955l16.935,20.112    c8.148,9.681,23.042,9.662,31.177,0l16.934-20.112c13.268,0,24.928,3.289,35.245,12.956    c22.322,20.913,59.805,66.598,60.024,137.576c0.025,8.022-6.21,14.724-13.899,14.937c-8.126,0.227-14.722-6.28-14.722-14.306    c0-41.359-14.792-77.36-40.258-106.22c-4.563-5.171-13.125-1.924-13.125,4.962v86.452c0,4.143,3.357,7.5,7.5,7.5    s7.5-3.357,7.5-7.5V209.68c15.522,23.663,23.381,50.227,23.381,79.094c0,16.533,13.619,29.766,30.137,29.301    c15.758-0.436,28.536-13.884,28.486-29.979C511.763,211.487,471.32,162.188,447.232,139.621z M155.704,137.611l-8.8,10.452    c-2.149,2.552-6.075,2.554-8.226,0l-8.8-10.452H155.704z M207.468,383.133h-6.787v0c-6.673,0-12.103,5.429-12.103,12.103v88.587    c0,5.98-4.866,10.848-10.849,10.848H161.14c-5.978,0-10.844-4.863-10.848-10.841v-91.742c0-4.143-3.358-7.5-7.5-7.5    c-4.142,0-7.5,3.357-7.5,7.5v91.742c-0.003,5.977-4.87,10.841-10.849,10.841h-16.59c-5.981,0-10.848-4.866-10.848-10.848v-89.641    c0-6.092-4.956-11.049-11.048-11.049h-10.27L96.96,188.332c0.793-7.258-8.26-11.246-13.08-5.776    c-25.453,28.842-40.257,64.842-40.257,106.22c0,8.072-6.648,14.534-14.721,14.306c-7.689-0.213-13.926-6.913-13.901-14.937    c0.22-70.98,37.701-116.663,60.024-137.577c10.465-9.804,22.231-12.955,35.243-12.955l16.935,20.112    c8.146,9.676,23.042,9.662,31.177,0.001l16.935-20.113c13.205,0,24.889,3.253,35.244,12.955    c7.391,6.925,17.709,17.793,27.595,32.28c-9.324,4.374-16.542,11.953-20.591,20.858c-4.52-7.159-9.789-14.272-15.859-21.15    c-4.831-5.477-13.871-1.467-13.08,5.776l9.314,85.284c-18.486,14.548-39.805,45.129-48.544,78.01    c-4.032,15.171,7.336,29.993,22.975,29.993c11.363,0,21.402-7.606,24.413-18.498c2.107-7.62,4.985-14.705,8.583-21.488    l2.102,19.246V383.133z M247.574,262.792c-4.111,0.003-7.969,0.007-11.205,0.014c-8.963,0-15.087-0.299-24.201,2.954l-5.603-51.31    c3.037,5.05,5.744,10.253,8.116,15.561C218.143,246.434,231.13,259.387,247.574,262.792z M361.707,365.662v118.161    c0,0.004,0.001,0.009,0.001,0.013c-0.007,5.974-4.872,10.835-10.848,10.835h-16.59c-5.981,0-10.849-4.866-10.849-10.848V376.153    C335.788,386.591,355.471,381.504,361.707,365.662z M310.625,290.464c17.295,17.242,30.622,39.016,37.423,63.483    c1.766,6.354-3.084,12.671-9.733,12.671c-3.703,0-6.969-2.565-7.942-6.238c-5.077-19.15-14.8-36.407-27.36-50.638    c-4.564-5.173-13.125-1.921-13.125,4.962v173.279c0,3.688-3.001,6.688-6.69,6.688h-12.83c-3.687,0-6.688-2.999-6.689-6.686    c0-0.108-0.012-0.214-0.016-0.321c0.013-0.179,0.027-0.357,0.027-0.539V373.586c0-4.143-3.357-7.5-7.5-7.5s-7.5,3.357-7.5,7.5    v113.539c0,0.11,0.012,0.217,0.016,0.326c-0.013,0.177-0.027,0.354-0.027,0.534c-0.002,3.686-3.003,6.685-6.69,6.685h-12.831    c-3.688,0-6.689-3-6.689-6.688c0-17.339,0-155.649,0-173.279c0-6.899-8.57-10.124-13.125-4.962    c-12.587,14.265-21.964,31.106-27.019,49.382c-1.221,4.413-5.314,7.495-9.956,7.495c-5.79,0-9.977-5.502-8.478-11.139    c8.676-32.644,27.106-55.058,41.039-68.112c6.657-6.234,14.857-9.502,25.324-9.539l12.569,14.928    c6.977,8.289,19.743,8.278,26.712,0.001l12.579-14.94C295.605,277.884,302.853,282.724,310.625,290.464z M249.843,277.807h12.668    l-4.453,5.289c-0.982,1.166-2.778,1.167-3.761,0L249.843,277.807z M297.954,228.63c2.99-6.504,6.485-12.848,10.467-18.934v59.867    c-12.421-7.163-22.254-6.756-32.933-6.756c-3.128-0.006-6.794-0.011-10.687-0.013C281.703,259.294,294.946,245.704,297.954,228.63    z M283.608,221.252c0,15.086-12.277,27.421-27.421,27.421c-14.618,0-26.672-11.516-27.388-26.12    c-0.74-15.755,11.905-28.722,27.388-28.722C271.173,193.831,283.608,206.004,283.608,221.252z M373.321,148.064    c-2.149,2.552-6.076,2.555-8.227-0.001l-8.801-10.451h25.826L373.321,148.064z" fill="#FFFFFF"/>
	</g>
</g>
<g>
</g>
<g>
</g>
<g>
</g>
<g>
</g>
<g>
</g>
<g>
</g>
<g>
</g>
<g>
</g>
<g>
</g>
<g>
</g>
<g>
</g>
<g>
</g>
<g>
</g>
<g>
</g>
<g>
</g>
</svg>
